<svg xmlns="http://www.w3.org/2000/svg" width="768" height="608">
	<path d="M 0,76.8013 C 0,34.5613 34.56,0.00133333 76.8,0.00133333 L 345.6,0.00133333 L 422.4,76.8013 L 691.2,76.8013 C 733.331,76.8013 768,111.469 768,153.6 L 768,537.6 C 768,579.732 733.331,614.4 691.2,614.4 L 76.8,614.4 C 34.6693,614.4 0,579.732 0,537.6 Z "/>
	<path fill="white" d="M 417.861,444.9 L 345.785,444.9 C 345.591,434.468 345.495,428.161 345.495,425.88 C 345.495,402.397 349.364,383.039 357.055,367.901 C 364.748,352.763 380.18,335.685 403.252,316.763 C 426.376,297.84 440.164,285.42 444.711,279.548 C 451.625,270.281 455.111,260.043 455.111,248.884 C 455.111,233.407 448.917,220.161 436.581,209.147 C 424.247,198.133 407.608,192.603 386.661,192.603 C 366.489,192.603 349.607,198.376 336.063,209.972 C 322.469,221.567 313.132,239.228 308.055,262.956 L 235.008,253.736 C 237.089,219.724 251.505,190.855 278.208,167.083 C 304.911,143.355 339.981,131.467 383.42,131.467 C 429.133,131.467 465.463,143.453 492.503,167.42 C 519.496,191.391 532.992,219.288 532.992,251.116 C 532.992,268.727 528.059,285.42 518.141,301.137 C 508.224,316.857 487.087,338.256 454.624,365.328 C 437.839,379.353 427.44,390.655 423.376,399.145 C 419.315,407.685 417.476,422.921 417.861,444.9 Z M 345.785,552.612 L 345.785,472.557 L 417.861,472.557 L 417.861,552.612 Z "/>
</svg>