<svg width="20" height="16" viewBox="0 0 20 16" fill="none" xmlns="http://www.w3.org/2000/svg">
<path d="M0 2C0.00158273 1.47005 0.212805 0.962265 0.587535 0.587535C0.962265 0.212805 1.47005 0.00158273 2 0H9L11 2H18C18.5304 2 19.0391 2.21071 19.4142 2.58579C19.7893 2.96086 20 3.46957 20 4V14C20 14.5304 19.7893 15.0391 19.4142 15.4142C19.0391 15.7893 18.5304 16 18 16H2C1.46957 16 0.960859 15.7893 0.585786 15.4142C0.210714 15.0391 0 14.5304 0 14V2Z" fill="#2F80ED"/>
<path d="M10.4674 11.0928L8.71785 10.1385C8.41371 10.4636 7.9809 10.6667 7.50065 10.6667C6.58018 10.6667 5.83398 9.92047 5.83398 9.00001C5.83398 8.07954 6.58018 7.33334 7.50065 7.33334C7.98088 7.33334 8.41367 7.53645 8.71781 7.86145L10.4674 6.90715C10.4347 6.77685 10.4173 6.64046 10.4173 6.50001C10.4173 5.57954 11.1635 4.83334 12.084 4.83334C13.0044 4.83334 13.7506 5.57954 13.7506 6.50001C13.7506 7.42049 13.0044 8.16668 12.084 8.16668C11.6037 8.16668 11.1709 7.96356 10.8668 7.63854L9.11722 8.59284C9.14994 8.72314 9.16732 8.85955 9.16732 9.00001C9.16732 9.14047 9.14995 9.27684 9.11724 9.40714L10.8668 10.3615C11.1709 10.0365 11.6037 9.83334 12.084 9.83334C13.0044 9.83334 13.7506 10.5796 13.7506 11.5C13.7506 12.4205 13.0044 13.1667 12.084 13.1667C11.1635 13.1667 10.4173 12.4205 10.4173 11.5C10.4173 11.3596 10.4347 11.2231 10.4674 11.0928ZM7.50065 9.83334C7.96089 9.83334 8.33398 9.46026 8.33398 9.00001C8.33398 8.53976 7.96089 8.16668 7.50065 8.16668C7.04041 8.16668 6.66732 8.53976 6.66732 9.00001C6.66732 9.46026 7.04041 9.83334 7.50065 9.83334ZM12.084 7.33334C12.5442 7.33334 12.9173 6.96025 12.9173 6.50001C12.9173 6.03977 12.5442 5.66668 12.084 5.66668C11.6237 5.66668 11.2506 6.03977 11.2506 6.50001C11.2506 6.96025 11.6237 7.33334 12.084 7.33334ZM12.084 12.3333C12.5442 12.3333 12.9173 11.9603 12.9173 11.5C12.9173 11.0398 12.5442 10.6667 12.084 10.6667C11.6237 10.6667 11.2506 11.0398 11.2506 11.5C11.2506 11.9603 11.6237 12.3333 12.084 12.3333Z" fill="white"/>
</svg>
