<svg width="80" height="80" viewBox="0 0 80 80" fill="none" xmlns="http://www.w3.org/2000/svg">
  <path fill-rule="evenodd" clip-rule="evenodd" d="M32.541 5C27.0483 5 22.5956 9.31133 22.5956 14.6296V21.2963H39.8087V23.1481H14.9453C9.45268 23.1481 5 27.4595 5 32.7778L5 47.2222C5 52.5405 9.45269 56.8518 14.9454 56.8518H20.6831V48.7037C20.6831 43.3854 25.1357 39.0741 30.6284 39.0741H48.989C53.6367 39.0741 57.4043 35.426 57.4043 30.9259V14.6296C57.4043 9.31133 52.9517 5 47.459 5H32.541ZM30.2459 16.8518C32.1472 16.8518 33.6885 15.3595 33.6885 13.5185C33.6885 11.6776 32.1472 10.1852 30.2459 10.1852C28.3446 10.1852 26.8033 11.6776 26.8033 13.5185C26.8033 15.3595 28.3446 16.8518 30.2459 16.8518Z" fill="url(#4008_0_linear)" />
  <path fill-rule="evenodd" clip-rule="evenodd" d="M47.4589 75.0003C52.9516 75.0003 57.4042 70.6889 57.4042 65.3706V58.704L40.1911 58.704L40.1911 56.8521L65.0545 56.8521C70.5472 56.8521 74.9999 52.5408 74.9999 47.2225V32.7781C74.9999 27.4598 70.5472 23.1484 65.0545 23.1484L59.3168 23.1484V31.2966C59.3168 36.6149 54.8641 40.9262 49.3715 40.9262L31.0108 40.9262C26.3632 40.9262 22.5955 44.5743 22.5955 49.0743L22.5955 65.3706C22.5955 70.6889 27.0482 75.0003 32.5409 75.0003H47.4589ZM49.754 63.1484C47.8527 63.1484 46.3114 64.6408 46.3114 66.4817C46.3114 68.3227 47.8527 69.8151 49.754 69.8151C51.6553 69.8151 53.1966 68.3227 53.1966 66.4817C53.1966 64.6408 51.6553 63.1484 49.754 63.1484Z" fill="url(#4008_1_linear)" />
  <defs>
    <linearGradient id="4008_0_linear" x1="31.2022" y1="5" x2="31.2022" y2="56.8518" gradientUnits="userSpaceOnUse">
      <stop stop-color="#327EBD" />
      <stop offset="1" stop-color="#1565A7" />
    </linearGradient>
    <linearGradient id="4008_1_linear" x1="48.7977" y1="23.1484" x2="48.7977" y2="75.0003" gradientUnits="userSpaceOnUse">
      <stop stop-color="#FFDA4B" />
      <stop offset="1" stop-color="#F9C600" />
    </linearGradient>
  </defs>
</svg>