<svg width="80" height="80" viewBox="0 0 80 80" fill="none" xmlns="http://www.w3.org/2000/svg">
  <path d="M55.3391 63.1788C47.0875 67.9251 35.7417 68.4127 24.327 63.5415C15.0847 59.6261 7.41597 52.7725 2.5 44.9419C4.85968 46.8995 7.61258 48.4664 10.5621 49.836C22.3502 55.3376 34.1359 54.9608 42.43 49.8501C30.6316 40.8434 20.5907 29.0816 13.1187 19.4887C11.545 17.9222 10.3651 15.9642 9.18529 14.2021C18.2306 22.4253 32.5858 32.8017 37.6974 35.7399C26.8838 24.383 17.2477 10.2868 17.6403 10.6776C34.7482 27.9075 50.6769 37.6976 50.6769 37.6976C51.2037 37.9934 51.6104 38.2398 51.9375 38.4599C52.2823 37.5867 52.5846 36.68 52.8392 35.7399C55.5921 25.7544 52.4467 14.3975 45.5636 5C61.4904 14.5938 70.9302 32.6063 66.9962 47.6831C66.8937 48.0898 66.7823 48.4912 66.6621 48.8855C74.5265 58.6756 72.5021 69.221 71.519 67.2633C67.2526 58.9503 59.3544 61.4922 55.3391 63.1788Z" fill="url(#4017_0_linear)" />
  <defs>
    <linearGradient id="4017_0_linear" x1="37.5257" y1="5" x2="37.5257" y2="67.5033" gradientUnits="userSpaceOnUse">
      <stop stop-color="#F88A36" />
      <stop offset="1" stop-color="#FD2020" />
    </linearGradient>
  </defs>
</svg>