<svg width="80" height="80" viewBox="0 0 80 80" fill="none" xmlns="http://www.w3.org/2000/svg">
  <path d="M75 40C75 59.32 59.3375 75 40 75C20.6625 75 5 59.32 5 40C5 20.6625 20.6625 5 40 5C59.3375 5 75 20.6625 75 40Z" fill="white" />
  <path d="M28.2657 54.775C27.9526 54.308 27.6784 53.6782 27.4559 52.9248C23.4393 48.3951 26.5423 41.7291 29.6116 37.2026C29.9058 36.7186 30.2263 36.2509 30.5747 35.8038C32.9164 32.8943 33.5223 30.8696 33.7024 28.1302C33.7239 27.6203 33.6817 26.9452 33.6331 26.1695C33.3854 22.2093 32.9738 15.6294 40.0398 15.046C48.8721 14.3167 48.1528 22.4276 48.0874 27.183C48.0847 27.3797 48.0821 27.5713 48.0801 27.7559C48.0562 30.6225 49.5522 32.5852 51.1138 34.6339C51.6841 35.382 52.263 36.1416 52.7799 36.9608C52.7953 36.985 52.8106 37.0094 52.8258 37.0338C55.5546 40.9692 58.2484 46.8424 54.4987 52.4131C53.9719 54.3147 53.1737 56.06 52.1085 57.4804C48.2839 62.513 44.8846 62.0021 42.2299 61.6031C41.4292 61.4827 40.6962 61.3725 40.0398 61.4277C38.9493 61.4942 38.0753 61.6706 37.3203 61.823C34.402 62.4121 33.2615 62.6423 28.2657 54.775Z" fill="black" />
  <path d="M45.035 19.4868C44.9531 21.8178 42.4804 23.8425 39.5164 24.0297C36.5524 24.2168 34.2271 22.4473 34.309 20.1163C34.3909 17.7853 36.8636 15.7606 39.8275 15.5734C42.7915 15.4033 45.1168 17.1558 45.035 19.4868Z" fill="url(#4103_0_linear)" />
  <path fill-rule="evenodd" clip-rule="evenodd" d="M39.6648 25.1525C39.6885 26.4201 40.2691 27.5008 41.0843 27.9889C38.4245 27.7506 35.1288 28.7231 35.1288 30.5631C35.0878 33.6761 33.3552 37.5491 32.1081 40.3368C31.8625 40.8859 31.6356 41.393 31.4443 41.8438C30.6722 43.7556 30.209 45.8001 30.1542 47.8056C28.1094 44.987 29.5951 41.3713 30.3963 39.8021C31.4623 37.7369 31.4418 37.4792 31.0277 37.9632C29.4405 40.6622 26.4514 46.0834 30.1944 49.3401C30.3133 50.7944 30.6676 52.2035 31.2969 53.4988C36.3078 63.6054 45.691 59.4539 48.786 54.2134C49.1978 53.4683 49.5307 52.7474 49.7951 52.051C49.95 52.1485 50.1159 52.224 50.2925 52.2737C51.8482 52.7331 54.1735 50.9806 54.7303 49.8917C55.4017 48.4455 54.7139 47.4586 52.4214 46.2846C52.3045 46.2267 52.1889 46.1723 52.0749 46.1216C52.9542 42.4192 50.5313 38.5692 48.8008 36.9359C48.478 36.8563 48.4326 37.0393 48.9334 37.5391C50.0232 38.5834 52.3936 42.3074 51.1112 45.773C50.8999 45.7162 50.6967 45.6763 50.5029 45.6543C50.109 43.2898 49.0584 41.4503 48.3243 40.1648C48.158 39.8735 48.0079 39.6107 47.8853 39.3767C47.6381 38.9045 47.3426 38.4156 47.0293 37.897C45.8216 35.8988 44.3482 33.4609 44.3482 29.8485C44.1636 29.0537 43.4136 28.5238 42.4151 28.2311C43.5739 27.9973 44.4438 26.6435 44.4137 25.0164C44.381 23.2639 43.2838 21.8687 41.9738 21.9027C40.6637 21.9367 39.6157 23.4 39.6648 25.1525ZM40.7456 25.5438C40.7292 26.5137 41.1877 27.2963 41.7936 27.2963C42.3832 27.2963 42.8908 26.5137 42.9072 25.5609C42.9235 24.591 42.465 23.8083 41.8591 23.8083C41.2532 23.8083 40.762 24.591 40.7456 25.5438Z" fill="url(#4103_1_linear)" />
  <path fill-rule="evenodd" clip-rule="evenodd" d="M36.3897 27.8748C37.3395 27.8238 38.0273 26.5477 37.9454 25.0334C37.8635 23.5191 37.0284 22.3451 36.0786 22.3961C35.1288 22.4472 34.441 23.7233 34.5229 25.2376C34.6048 26.7519 35.4399 27.9259 36.3897 27.8748ZM36.9628 25.5608C37.0447 26.3605 36.75 27.0411 36.3242 27.1092C35.8984 27.1602 35.4891 26.5647 35.4072 25.765C35.3253 24.9653 35.6201 24.2848 36.0458 24.2167C36.4716 24.1656 36.881 24.7612 36.9628 25.5608Z" fill="url(#4103_2_linear)" />
  <path d="M40.9899 24.9993C40.9408 25.5438 41.1864 25.9862 41.5303 26.0202C41.8742 26.0542 42.2017 25.6288 42.2508 25.1014C42.2999 24.5569 42.0543 24.1146 41.7104 24.0805C41.3665 24.0465 41.039 24.4719 40.9899 24.9993Z" fill="url(#4103_3_linear)" />
  <path d="M36.6029 25.1358C36.652 25.5782 36.4719 25.9695 36.2099 26.0036C35.9479 26.0376 35.7022 25.6973 35.6531 25.2379C35.604 24.7955 35.7841 24.4042 36.0461 24.3702C36.3081 24.3361 36.5538 24.6934 36.6029 25.1358Z" fill="url(#4103_4_linear)" />
  <path d="M46.6718 42.8816C46.6718 45.8762 43.9043 49.7555 39.1554 49.7215C34.2591 49.7555 32.1794 45.8762 32.1794 42.8816C32.1794 39.8871 35.4218 37.454 39.4174 37.454C43.4294 37.471 46.6718 39.8871 46.6718 42.8816Z" fill="url(#4103_5_linear)" />
  <path d="M44.0865 33.4732C44.0374 36.5699 42.0887 37.3015 39.6324 37.3015C37.176 37.3015 35.3911 36.8421 35.1782 33.4732C35.1782 31.3634 37.176 30.1384 39.6324 30.1384C42.0887 30.1213 44.0865 31.3464 44.0865 33.4732Z" fill="url(#4103_6_linear)" />
  <path d="M29.2333 38.2367C30.8381 35.7016 34.2279 31.8052 29.872 38.7812C26.3349 44.5321 28.5619 48.2243 29.7082 49.2452C33.0161 52.3078 32.8851 54.3666 30.2814 52.7502C24.6973 49.2962 25.86 43.4772 29.2333 38.2367Z" fill="url(#4103_7_linear)" />
  <path d="M52.4701 39.2749C51.0782 36.2974 46.6568 28.7429 52.683 37.5224C58.1688 45.4683 54.3205 50.998 53.6328 51.5425C52.945 52.0869 50.6361 53.1929 51.3074 51.2702C51.9952 49.3476 55.4013 45.7065 52.4701 39.2749Z" fill="url(#4103_8_linear)" />
  <path d="M28.023 62.7551C24.3548 60.7303 19.0328 63.1464 20.9651 57.6677C21.3581 56.4256 20.392 54.554 21.0142 53.346C21.7511 51.8657 23.3396 52.189 24.2893 51.2022C25.2227 50.1813 25.8123 48.4118 27.5645 48.684C29.3003 48.9562 30.4629 51.1681 31.6747 53.8905C32.5754 55.8301 35.7522 58.5695 35.5393 60.7473C35.2773 64.0822 31.6256 64.7117 28.023 62.7551Z" fill="url(#4103_9_linear)" />
  <path fill-rule="evenodd" clip-rule="evenodd" d="M24.6916 51.6008C23.7996 52.5764 22.1613 52.3425 21.5038 53.6191C21.0815 54.4389 21.5429 55.6988 21.6052 56.5966C21.6821 57.7057 20.7626 59.2773 21.2308 60.2245C21.7567 61.2883 24.1324 61.1503 25.1768 61.3029C27.7549 61.6795 32.0157 65.0161 34.347 62.3533C36.6261 59.7502 32.2455 56.456 31.171 54.1419C30.4723 52.5721 29.4266 49.5622 27.4799 49.2564C26.1078 49.0435 25.4827 50.7355 24.6916 51.6008ZM27.6459 48.1113C30.0694 48.4914 31.2823 51.6336 32.1768 53.6428C33.5344 56.5565 38.1869 59.6884 35.1715 63.1326C32.4329 66.2605 28.1094 62.9007 25.0216 62.4496C23.4792 62.2243 21.0465 62.3862 20.2394 60.7536C19.5455 59.3499 20.5905 58.0787 20.4935 56.6798C20.4108 55.4878 19.9391 54.2079 20.5193 53.0763C21.3134 51.4859 22.8466 51.871 23.8887 50.7976C24.9952 49.5818 25.6584 47.8026 27.6459 48.1113Z" fill="#E68C3F" />
  <path d="M53.453 61.82C56.1386 58.4341 62.1156 59.1317 58.0872 54.4868C57.2357 53.4829 57.4977 51.3391 56.4497 50.4203C55.2215 49.2973 53.8624 50.2161 52.6178 49.6376C51.3733 49.0081 50.0632 47.8 48.5403 48.6508C47.0174 49.5185 46.8536 51.7644 46.7063 54.725C46.5752 56.8518 44.7084 60.4078 45.7073 62.3645C47.1484 65.3931 50.8984 64.9848 53.453 61.82Z" fill="url(#4103_10_linear)" />
  <path fill-rule="evenodd" clip-rule="evenodd" d="M54.5235 49.2451C55.2121 49.2271 56.0367 49.2753 56.8113 49.981C57.7745 50.8302 57.784 52.2165 58.1472 53.3773C58.5773 54.7519 60.0844 55.5371 59.9943 57.1489C59.847 59.7839 55.2838 60.4186 53.8792 62.1895C52.5296 63.8614 50.8235 64.8571 49.2045 64.9913C46.7493 65.1948 44.7211 63.1302 44.8649 60.6095C44.9812 58.5689 46.0209 56.7149 46.1475 54.6906C46.2205 53.2248 46.2993 51.8657 46.5643 50.7622C46.8321 49.647 47.3146 48.6866 48.27 48.1423C50.3625 46.9733 52.384 49.3012 54.5235 49.2451ZM48.8039 49.1589C48.2375 49.4826 47.8773 50.0787 47.6458 51.0425C47.4116 52.018 47.3344 53.2679 47.2601 54.7612C47.1351 56.7903 46.0936 58.6428 45.9776 60.6779C45.8741 62.4928 47.268 63.9899 49.1159 63.8368C50.3703 63.7328 51.8173 62.9407 53.0221 61.4491C54.0985 60.093 58.7836 58.8338 58.8815 57.0817C58.9455 55.9376 57.4404 54.8645 57.0871 53.7354C56.8106 52.8517 56.7959 51.4828 56.0879 50.8621C55.6355 50.4485 55.1595 50.387 54.5516 50.4029C52.7899 50.4491 50.4394 48.2477 48.8039 49.1589Z" fill="#E68C3F" />
  <path d="M52.2882 57.2932C56.4476 50.9128 53.3526 50.9638 52.3046 50.4704C51.2566 49.9599 50.1594 48.9561 48.9312 49.6537C47.7031 50.3683 47.6376 52.2059 47.6048 54.6219C47.5557 56.3574 46.1638 59.2669 46.9989 60.8833C48.0142 62.7719 50.4705 60.0326 52.2882 57.2932Z" fill="url(#4103_11_linear)" />
  <path d="M27.1697 58.2117C20.947 54.0261 23.8618 52.5969 24.7952 51.9333C25.9251 51.0826 25.9415 49.4492 27.3334 49.6023C28.7254 49.7555 29.5441 51.542 30.4775 53.7539C31.1653 55.3363 33.5561 57.4461 33.376 59.2666C33.1468 61.4105 29.8553 59.9983 27.1697 58.2117Z" fill="url(#4103_12_linear)" />
  <path d="M54.3698 49.8399C53.8786 50.7247 51.8808 52.1199 50.5543 51.7455C49.1952 51.3882 48.5729 49.3975 48.8513 47.9002C49.0969 46.1988 50.5543 46.1137 52.3884 46.9644C54.3371 47.8832 54.943 48.6659 54.3698 49.8399Z" fill="black" />
  <path d="M53.0262 49.3475C52.7151 49.9601 51.405 50.9299 50.488 50.6747C49.571 50.4195 49.1124 49.0413 49.2598 48.0034C49.3908 46.8294 50.3734 46.7613 51.6179 47.3398C52.9607 47.9864 53.3865 48.5308 53.0262 49.3475Z" fill="url(#4103_13_linear)" />
  <path d="M36.0927 27.1441C36.7477 26.5146 38.3362 24.5919 41.3493 26.5997C41.906 26.974 42.3646 27.008 43.429 27.4844C45.5742 28.4032 44.5589 30.6151 42.2663 31.3637C41.2838 31.687 40.3995 32.9291 38.6309 32.81C37.108 32.7249 36.715 31.687 35.7816 31.1255C34.1277 30.1557 33.882 28.8456 34.7827 28.148C35.6833 27.4504 36.0272 27.1952 36.0927 27.1441Z" fill="url(#4103_14_linear)" />
  <path fill-rule="evenodd" clip-rule="evenodd" d="M34.9834 28.4262C34.641 28.6914 34.532 29.0441 34.6452 29.434C34.8777 30.235 36.5543 31.3368 37.1962 31.8758C37.5613 32.1823 37.9788 32.4252 38.6535 32.4629C40.0985 32.5603 40.9009 31.4485 42.1669 31.032C42.9996 30.76 44.7612 29.721 44.1776 28.5302C43.6797 27.5141 42.0023 27.4513 41.1691 26.8913C39.7349 25.9359 38.6909 25.9427 37.9472 26.2108C37.1323 26.5045 35.7216 27.8544 34.9834 28.4262ZM37.728 25.5543C38.6954 25.2057 39.9532 25.2557 41.5318 26.3076C42.5692 27.0051 44.1477 26.9378 44.7736 28.2149C45.5708 29.8418 43.6391 31.2794 42.3679 31.6947C41.0065 32.1429 40.2461 33.2657 38.612 33.1564C37.7648 33.1087 37.2211 32.7901 36.7759 32.4163C35.8522 31.6407 34.2916 30.9038 33.9347 29.674C33.7367 28.9921 34.0255 28.3015 34.5837 27.8691C35.4861 27.1702 36.7053 25.923 37.728 25.5543Z" fill="#E68C3F" />
  <path fill-rule="evenodd" clip-rule="evenodd" d="M43.6856 28.918C43.6923 29.0457 43.5981 29.1549 43.4751 29.1619C41.7419 29.2601 40.5241 31.238 38.5667 31.238C37.4715 31.238 36.6044 30.7095 35.9846 30.2013C35.8597 30.0989 34.7576 29.2492 34.7576 29.0327C34.7576 28.9048 34.8574 28.8011 34.9805 28.8011C35.2108 28.8011 35.9056 29.5551 36.1641 29.767C36.7479 30.2456 37.615 30.7748 38.5667 30.7748C40.5044 30.7748 41.6933 28.7989 43.4509 28.6993C43.5738 28.6924 43.6789 28.7903 43.6856 28.918Z" fill="#E68C3F" />
  <path d="M37.1109 26.973C37.4384 26.6667 38.47 25.833 39.8292 26.6837C40.124 26.8539 40.4187 27.041 40.8445 27.2963C41.7124 27.8237 41.2866 28.5894 40.2386 29.0658C39.7637 29.2699 38.9777 29.7123 38.3882 29.6783C37.7331 29.6102 37.291 29.1679 36.8652 28.8786C36.0628 28.3341 36.112 27.8748 36.4886 27.5174C36.767 27.2452 37.0781 26.99 37.1109 26.973Z" fill="url(#4103_15_linear)" />
  <defs>
    <linearGradient id="4103_0_linear" x1="40.1448" y1="15.7659" x2="39.5912" y2="23.2654" gradientUnits="userSpaceOnUse">
      <stop stop-color="white" stop-opacity="0.8" />
      <stop offset="1" stop-color="white" stop-opacity="0" />
    </linearGradient>
    <linearGradient id="4103_1_linear" x1="32.2423" y1="56.6806" x2="28.1272" y2="43.1791" gradientUnits="userSpaceOnUse">
      <stop stop-color="#FFEED7" />
      <stop offset="1" stop-color="#BDBFC2" />
    </linearGradient>
    <linearGradient id="4103_2_linear" x1="32.2423" y1="56.6806" x2="28.1272" y2="43.1791" gradientUnits="userSpaceOnUse">
      <stop stop-color="#FFEED7" />
      <stop offset="1" stop-color="#BDBFC2" />
    </linearGradient>
    <linearGradient id="4103_3_linear" x1="41.67" y1="24.1389" x2="41.4367" y2="25.8858" gradientUnits="userSpaceOnUse">
      <stop stop-color="white" stop-opacity="0.65" />
      <stop offset="1" stop-color="white" stop-opacity="0" />
    </linearGradient>
    <linearGradient id="4103_4_linear" x1="36.0854" y1="24.4576" x2="36.3364" y2="25.8711" gradientUnits="userSpaceOnUse">
      <stop stop-color="white" stop-opacity="0.65" />
      <stop offset="1" stop-color="white" stop-opacity="0" />
    </linearGradient>
    <linearGradient id="4103_5_linear" x1="39.4026" y1="39.0769" x2="39.4442" y2="49.0683" gradientUnits="userSpaceOnUse">
      <stop stop-color="white" stop-opacity="0.8" />
      <stop offset="1" stop-color="white" stop-opacity="0" />
    </linearGradient>
    <linearGradient id="4103_6_linear" x1="39.6259" y1="32.812" x2="39.672" y2="36.7848" gradientUnits="userSpaceOnUse">
      <stop stop-color="white" stop-opacity="0.65" />
      <stop offset="1" stop-color="white" stop-opacity="0" />
    </linearGradient>
    <linearGradient id="4103_7_linear" x1="29.2992" y1="35.2635" x2="29.2992" y2="49.8428" gradientUnits="userSpaceOnUse">
      <stop stop-color="white" stop-opacity="0.65" />
      <stop offset="1" stop-color="white" stop-opacity="0" />
    </linearGradient>
    <linearGradient id="4103_8_linear" x1="52.5824" y1="33.8399" x2="52.5767" y2="47.0129" gradientUnits="userSpaceOnUse">
      <stop stop-color="white" stop-opacity="0.65" />
      <stop offset="1" stop-color="white" stop-opacity="0" />
    </linearGradient>
    <linearGradient id="4103_9_linear" x1="28.5721" y1="56.0934" x2="26.3392" y2="63.5534" gradientUnits="userSpaceOnUse">
      <stop stop-color="#FFA63F" />
      <stop offset="1" stop-color="#FFFF00" />
    </linearGradient>
    <linearGradient id="4103_10_linear" x1="49.7044" y1="53.8255" x2="55.6635" y2="61.9508" gradientUnits="userSpaceOnUse">
      <stop stop-color="#FFA63F" />
      <stop offset="1" stop-color="#FFFF00" />
    </linearGradient>
    <linearGradient id="4103_11_linear" x1="51.2989" y1="47.3331" x2="49.2151" y2="57.151" gradientUnits="userSpaceOnUse">
      <stop stop-color="white" stop-opacity="0.65" />
      <stop offset="1" stop-color="white" stop-opacity="0" />
    </linearGradient>
    <linearGradient id="4103_12_linear" x1="28.1153" y1="49.7606" x2="28.5284" y2="60.8098" gradientUnits="userSpaceOnUse">
      <stop stop-color="white" stop-opacity="0.65" />
      <stop offset="1" stop-color="white" stop-opacity="0" />
    </linearGradient>
    <linearGradient id="4103_13_linear" x1="50.938" y1="47.1544" x2="51.4213" y2="50.4559" gradientUnits="userSpaceOnUse">
      <stop stop-color="white" stop-opacity="0.65" />
      <stop offset="1" stop-color="white" stop-opacity="0" />
    </linearGradient>
    <linearGradient id="4103_14_linear" x1="39.4102" y1="26.9602" x2="39.4505" y2="32.7746" gradientUnits="userSpaceOnUse">
      <stop stop-color="#FFA63F" />
      <stop offset="1" stop-color="#FFFF00" />
    </linearGradient>
    <linearGradient id="4103_15_linear" x1="38.777" y1="26.4094" x2="38.766" y2="29.4839" gradientUnits="userSpaceOnUse">
      <stop stop-color="white" stop-opacity="0.65" />
      <stop offset="1" stop-color="white" stop-opacity="0" />
    </linearGradient>
  </defs>
</svg>